<svg width="849" height="657" viewBox="0 0 849 657" fill="none" xmlns="http://www.w3.org/2000/svg">
<path d="M578.691 253.472C593.813 231.247 612.609 211.971 628.281 190.189C631.987 185.036 642.143 172.161 638.664 165.328C634.982 158.094 611.252 168.723 605.417 170.536C569.388 181.73 539.68 202.203 505.547 216.908C510.688 204.561 518.195 193.197 522.138 180.344C523.205 176.864 525.799 170.537 523.454 167.135C518.706 160.248 496.737 173.847 491.48 176.473C459.963 192.218 430.386 218.279 397.236 229.565C400.592 211.756 404.327 193.972 407.434 176.126C408.095 172.329 412.381 160.57 406.639 158.901C399.64 156.863 389.794 173.116 385.983 177.532C367.767 198.645 350.359 220.42 334.876 243.628C308.351 283.385 282.573 323.916 259.821 365.976C253.708 377.276 247.876 389.048 243.484 401.134C240.857 408.366 239.544 417.417 233.75 422.906C213.323 442.261 176.681 451.157 149.669 454.573C151.81 448.69 165.506 426.755 153.681 423.338C147.509 421.553 137.55 427.832 131.383 429.26C132.563 425.07 133.792 420.87 134.666 416.603C142.507 378.321 103.003 408.975 90.5907 419.6C70.2546 437.007 51.1587 457.682 28.6989 471.346C-19.4413 500.632 8.08285 569.261 51.205 586.113C86.6244 599.955 120.818 581.172 153.889 570.978C184.31 561.601 219.958 566.34 250.947 569.656C262.453 570.888 277.086 570.496 287.519 575.515C270.648 583.917 236.319 623.263 262.332 640.192C269.31 644.733 277.324 641.342 284.706 643.844C290.734 645.887 295.175 650.423 301.585 651.904C317.988 655.695 337.232 652.169 353.63 649.866C372.23 647.252 402.462 645.586 416.923 632.909C436.177 616.029 441.652 586.402 460.956 570.612C467.174 565.527 478.237 565.617 485.854 563.738C503.261 559.444 519.406 552.273 536.492 547.389C529.859 559.992 517.212 577.326 521.938 592.39C528.237 612.468 576.003 618.515 589.944 605.047C610.173 623.074 655.239 618.119 679.969 612.55C689.027 610.509 701.729 606.075 707.058 597.955C722.483 574.446 703.337 535.646 697.516 512.231C689.341 479.344 693.024 443.722 700.258 410.978C723.255 306.886 825.783 240.485 843.933 132.53C851.464 87.7339 839.935 10.7909 784.059 5.96323C777.835 5.42548 766.337 1.44628 760.588 4.02091C754.876 6.5791 754.396 21.5934 752.9 27.0577C747.224 47.787 739.188 68.049 730.173 87.5286C721.789 105.642 710.066 122.208 700.258 139.562C671.484 190.477 639.625 239.371 578.691 253.472Z" fill="#000111" stroke="#000111" stroke-width="5"/>
<path d="M775.62 14.8036C832.049 7.75583 842.215 91.1426 835.493 131.124C821.429 214.771 757.909 271.921 717.769 342.069C699.262 374.41 690.341 410.85 685.996 447.542C683.483 468.779 684.319 491.289 689.006 512.231C693.744 533.396 704.367 553.337 702.691 575.515C702.249 581.399 702.839 589.644 698.818 594.459C692.887 601.561 680.23 604.452 671.529 605.836C652.369 608.882 610.954 614.386 596.034 599.121C595.424 598.497 594.672 597.959 594.282 597.178C587.545 583.686 582.207 565.187 579.752 550.201C577.522 536.59 574.482 523.418 571.372 510.166C570.001 504.322 568.616 498.463 567.281 492.543C566.552 489.309 567.213 474.119 561.812 475.149C555.952 476.265 558.003 485.955 558.724 489.731C561.919 506.47 566.427 514.625 551.96 527.44C534.024 543.329 507.185 550.124 484.447 555.644C476.197 557.648 463.875 557.417 456.61 561.702C450.387 565.373 446.69 575.146 443.092 581.14C434.522 595.422 426.429 610.925 415.116 623.273C406.977 632.154 397.146 632.913 385.983 635.142C366.054 639.12 345.855 643.477 325.498 644.369C316.602 644.758 305.446 645.816 297.513 641.025C285.468 633.75 292.649 618.046 298.834 609.266C314.452 587.094 342.418 579.007 356.005 554.42C358.658 549.618 373.142 521.713 364.498 518.343C359.239 516.293 358.068 527.606 357.319 530.513C354.342 542.051 342.971 559.121 333.936 566.63C321.407 566.15 310.455 565.671 300.179 565.671C259.649 565.671 220.079 556.905 179.208 558.694C143.402 563.008 113.105 584.034 76.5244 582.491C53.2742 581.51 30.6315 569.296 18.7895 548.795C2.40294 520.426 15.6304 483.979 45.5785 472.593C67.2509 466.307 86.5055 469.681 109.052 469.379C133.617 469.052 162.931 463.015 186.242 455.255C230.431 440.542 269.175 411.404 302.992 379.913C336.488 348.721 365.92 318.721 408.583 299.206C409.31 298.873 410.04 298.551 410.773 298.24C433.547 288.559 457.455 285.786 481.634 282.608C535.613 275.512 605.519 265.54 647.616 227.914C673.614 204.679 690.419 173.642 707.291 143.781C720.248 120.851 734.259 99.0617 744.869 74.8719C752.036 58.532 756.174 17.2322 775.62 14.8036Z" fill="#ffba44" stroke="#000111" stroke-width="5"/>
<path d="M326.905 574.109C311.614 592.617 278.571 604.755 283.299 634.58C256.437 637.9 260.856 613.702 273.004 598.017C287.567 579.212 304.481 574.109 326.905 574.109Z" fill="#86652d"/>
<path d="M567.438 523.482C568.511 531.924 569.734 540.261 571.237 548.501C574.408 565.887 578.827 582.839 585.724 599.422C573.267 605.416 530.915 606.414 529.669 586.764C528.302 565.204 551.923 535.977 567.438 523.482Z" fill="#86652d"/>
<path d="M629.33 171.907C619.499 194.679 598.559 212.993 583.509 232.378C577.189 240.517 571.131 253.662 561.685 258.493C550.137 264.4 533.675 265.286 521.02 267.816C476.1 276.797 430.751 276.461 389.527 298.357C334.607 327.525 301.762 383.243 248.133 413.79C254.984 388.698 269.264 365.835 282.103 343.475C302.763 307.496 324.685 271.767 348.818 238.003C363.052 218.087 378.611 191.937 398.643 177.532C396.755 192.15 392.724 206.558 390.315 221.127C389.557 225.719 387.098 233.355 391.051 237.132C397.837 243.617 416.593 229.766 422.555 226.19C453.107 207.864 482.237 188.318 515.393 174.719C511.085 187.937 504.684 200.471 498.079 212.689C496.069 216.408 490.624 222.908 492.947 227.418C496.6 234.505 520.807 218.237 525.239 215.827C559.301 197.297 592.413 183.708 629.33 171.907Z" fill="#ff8c4c"/>
<path d="M127.163 403.946C127.125 417.864 114.694 443.882 139.821 435.786C143.158 434.71 146.4 433.334 149.669 432.072L141.229 455.979L110.283 460.55L58.2382 460.198L79.3376 439.928L127.163 403.946Z" fill="#ff8c4c"/>
<path d="M94.8105 496.086C81.0106 498.259 73.4795 505.779 67.4496 515.05C66.1026 517.121 58.6777 531.976 66.5868 530.625C71.6259 529.762 76.9529 517.328 80.7659 513.785C89.4027 505.76 100.202 508.08 108.368 502.355C117.509 495.945 97.8261 495.432 94.8105 496.086Z" fill="#000111"/>
</svg>
